<svg width="800" height="1000" viewBox="0 0 800 1000" fill="none" xmlns="http://www.w3.org/2000/svg">
  <defs>
    <filter id="shadow" x="-50%" y="-50%" width="200%" height="200%">
      <feGaussianBlur in="SourceAlpha" stdDeviation="10"/>
      <feOffset dx="0" dy="5" result="offsetblur"/>
      <feComponentTransfer>
        <feFuncA type="linear" slope="0.4"/>
      </feComponentTransfer>
      <feMerge>
        <feMergeNode/>
        <feMergeNode in="SourceGraphic"/>
      </feMerge>
    </filter>
  </defs>
  
  <!-- Shirt Body -->
  <path d="M250 150 L200 180 L180 250 L180 400 L200 950 L600 950 L620 400 L620 250 L600 180 L550 150 L500 200 L450 220 L400 220 L350 220 L300 200 Z" 
        fill="#1F2937" 
        stroke="#111827" 
        stroke-width="2"
        filter="url(#shadow)"/>
  
  <!-- Left Sleeve -->
  <path d="M250 150 L200 180 L150 200 L100 250 L120 300 L150 280 L180 250" 
        fill="#374151" 
        stroke="#111827" 
        stroke-width="2"/>
  
  <!-- Right Sleeve -->
  <path d="M550 150 L600 180 L650 200 L700 250 L680 300 L650 280 L620 250" 
        fill="#374151" 
        stroke="#111827" 
        stroke-width="2"/>
  
  <!-- Collar -->
  <ellipse cx="400" cy="180" rx="50" ry="30" fill="#4B5563" stroke="#111827" stroke-width="2"/>
  <path d="M350 180 Q400 200 450 180" fill="none" stroke="#111827" stroke-width="2"/>
  
  <!-- Print Area Rectangle -->
  <rect id="printArea" x="280" y="320" width="240" height="300" fill="rgba(255, 255, 255, 0.05)" stroke="#60A5FA" stroke-width="1" stroke-dasharray="5,5" opacity="0.6"/>
  
  <!-- Seams -->
  <line x1="400" y1="200" x2="400" y2="950" stroke="#000000" stroke-width="1" opacity="0.3"/>
</svg>
