<svg width="200" height="150" viewBox="0 0 200 150" fill="none" xmlns="http://www.w3.org/2000/svg">
  <!-- Event Flyer Thumbnail -->
  <rect width="200" height="150" fill="#F8FAFC"/>
  
  <!-- Flyer Shadow -->
  <rect x="58" y="13" width="90" height="130" rx="3" fill="#CBD5E1"/>
  
  <!-- Flyer -->
  <rect x="55" y="10" width="90" height="130" rx="3" fill="#8B5CF6"/>
  
  <!-- Header Image Area -->
  <rect x="60" y="15" width="80" height="40" rx="2" fill="#6D28D9"/>
  <text x="100" y="40" text-anchor="middle" fill="white" font-size="10" font-weight="bold">EVENT</text>
  
  <!-- Title -->
  <rect x="65" y="62" width="70" height="8" rx="2" fill="#FFFFFF"/>
  <rect x="75" y="74" width="50" height="5" rx="1" fill="#C4B5FD"/>
  
  <!-- Details -->
  <rect x="65" y="88" width="60" height="3" rx="1" fill="#DDD6FE"/>
  <rect x="65" y="95" width="50" height="3" rx="1" fill="#DDD6FE"/>
  <rect x="65" y="102" width="55" height="3" rx="1" fill="#DDD6FE"/>
  
  <!-- CTA Button -->
  <rect x="70" y="115" width="60" height="15" rx="8" fill="#FFFFFF"/>
  <rect x="85" y="120" width="30" height="5" rx="2" fill="#8B5CF6"/>
  
  <!-- Decorative -->
  <circle cx="130" cy="25" r="8" fill="#A78BFA" opacity="0.5"/>
  <circle cx="70" cy="130" r="6" fill="#C4B5FD" opacity="0.5"/>
</svg>